<svg width="43" height="7" viewBox="0 0 43 7" fill="none" xmlns="http://www.w3.org/2000/svg">
<g style="mix-blend-mode:difference">
<path d="M0 5C0 4.44772 0.447715 4 1 4V4C1.55228 4 2 4.44772 2 5V6.72727C2 6.8779 1.8779 7 1.72727 7H0.272727C0.122104 7 0 6.8779 0 6.72727V5Z" fill="white"/>
<path d="M3 4C3 3.44772 3.44772 3 4 3V3C4.55228 3 5 3.44772 5 4V6.63636C5 6.83719 4.83719 7 4.63636 7H3.36364C3.16281 7 3 6.83719 3 6.63636V4Z" fill="white"/>
<path d="M6 2C6 1.44772 6.44772 1 7 1C7.55228 1 8 1.44772 8 2V6.45455C8 6.75579 7.75579 7 7.45455 7H6.54545C6.24421 7 6 6.75579 6 6.45455V2Z" fill="white"/>
<path d="M9 1C9 0.447715 9.44772 0 10 0V0C10.5523 0 11 0.447715 11 1V6.36364C11 6.71509 10.7151 7 10.3636 7H9.63636C9.28491 7 9 6.71509 9 6.36364V1Z" fill="white"/>
<g clip-path="url(#clip0_428_396)">
<path d="M18.445 0.00540161C18.4824 0.012097 18.52 0.0129339 18.5579 0.00791237L18.601 0.0122309C19.7743 0.0389454 20.909 0.402202 21.9138 1.06705L21.9577 1.09758C22.322 1.35073 22.657 1.64372 22.9628 1.97655C22.9754 1.99028 22.9857 2.01183 22.9936 2.04123C22.9993 2.08227 22.9898 2.1214 22.9651 2.15863C22.9135 2.23616 22.8674 2.29876 22.827 2.34644C22.6972 2.49936 22.561 2.64495 22.4183 2.78321C22.368 2.83192 22.306 2.89268 22.2421 2.91748C22.1991 2.91849 22.1601 2.90195 22.1248 2.86787C21.9417 2.69098 21.7375 2.51599 21.5123 2.34292C21.4263 2.27684 21.3384 2.21393 21.2487 2.15421C21.027 1.99982 20.7957 1.86494 20.5549 1.74958C20.2865 1.61661 20.0087 1.51393 19.7215 1.44156C19.0185 1.25385 18.2609 1.24421 17.5527 1.37808C16.8146 1.51758 16.1295 1.85844 15.5131 2.32454C15.2906 2.49266 15.0775 2.67401 14.8739 2.86857C14.7793 2.95896 14.7108 2.90302 14.6327 2.83071C14.5458 2.75043 14.4613 2.66721 14.3793 2.58104L14.2576 2.44546C14.1825 2.3619 14.1127 2.27339 14.0482 2.17992C13.9938 2.10118 13.9838 2.03028 14.0543 1.95486C15.1989 0.726793 16.7965 0.0443686 18.3946 0.0126326L18.445 0.00540161Z" fill="white"/>
<path d="M21.3078 2.94551L21.4062 3.03047C21.4925 3.10914 21.5762 3.19072 21.6573 3.27522C21.7032 3.31047 21.7656 3.38961 21.7482 3.4562C21.7297 3.527 21.65 3.62231 21.599 3.68327C21.4562 3.85601 21.3043 4.01867 21.1435 4.17126C21.1054 4.20741 21.0351 4.2728 20.9841 4.27792C20.9434 4.27303 20.907 4.25696 20.8747 4.22971C20.7976 4.1647 20.7192 4.10153 20.6397 4.0402C20.4382 3.88112 20.2277 3.73774 20.0083 3.61005C19.718 3.43437 19.4087 3.31851 19.0806 3.26247C18.6123 3.18242 18.1459 3.19869 17.6905 3.33216C17.4885 3.39132 17.2894 3.46132 17.1022 3.55582C16.7995 3.70874 16.5081 3.8925 16.228 4.10709C16.1725 4.14957 16.0882 4.22047 16.0157 4.2737C15.9791 4.27681 15.916 4.22469 15.8878 4.20008C15.7309 4.0634 15.529 3.84004 15.3714 3.6447C15.3207 3.58183 15.2854 3.53005 15.2655 3.48934C15.2231 3.40216 15.2756 3.34653 15.3285 3.29079C15.6707 2.93058 16.0578 2.64241 16.49 2.42628C17.4114 1.96531 18.4393 1.81496 19.4366 2.04113C20.1114 2.19409 20.7561 2.49357 21.3078 2.94551Z" fill="white"/>
<path d="M20.4536 4.91855C20.3937 5.00198 20.3296 5.08149 20.2615 5.15708C20.1573 5.27619 20.049 5.39058 19.9366 5.50025C19.8838 5.55173 19.8264 5.59619 19.7645 5.63362C19.7523 5.64098 19.7405 5.64082 19.7291 5.63312L19.5337 5.50105C19.374 5.39339 19.2022 5.30712 19.0258 5.23812C18.7829 5.14305 18.535 5.1152 18.282 5.15456C18.0937 5.18389 17.912 5.25741 17.7357 5.34428C17.57 5.42593 17.4348 5.52726 17.2884 5.62568C17.2759 5.63405 17.2639 5.6374 17.2524 5.63573C17.2097 5.6298 17.1397 5.56914 17.1117 5.54313C16.9929 5.43259 16.8726 5.30879 16.7507 5.17174L16.6454 5.05162C16.6428 5.0452 16.6388 5.04004 16.6336 5.03616C16.5886 4.97972 16.5475 4.92019 16.5102 4.85759C16.4551 4.7651 16.5296 4.68646 16.5913 4.6261C16.9405 4.28454 17.3751 4.06841 17.8272 3.94819C18.5411 3.75828 19.2923 3.89015 19.9367 4.26335C20.1266 4.37342 20.2937 4.5099 20.4534 4.67561C20.5346 4.75987 20.5178 4.83319 20.4536 4.91855Z" fill="white"/>
<path d="M19.1932 6.02289L19.2139 6.04378C19.2935 6.14039 19.2452 6.22827 19.186 6.31203C19.0303 6.52725 18.8148 6.76065 18.6215 6.93178C18.5893 6.95743 18.5549 6.97862 18.5182 6.99536C18.3907 7.01424 18.0209 6.57275 17.9316 6.46428C17.8573 6.37429 17.799 6.3046 17.7565 6.21602C17.6329 5.95811 18.2721 5.80947 18.3873 5.7923C18.5496 5.7681 18.7145 5.80556 18.8754 5.85939C18.9851 5.89615 19.1048 5.93923 19.1932 6.02289Z" fill="white"/>
</g>
<path d="M42.4417 1H42.4797V6.40801H42.4458L42.4417 1Z" fill="#030101" fill-opacity="0.01"/>
<path d="M37.9838 5.5472C37.9838 5.7458 37.905 5.93626 37.7645 6.07668C37.6241 6.21711 37.4336 6.296 37.235 6.296H26.4446C26.246 6.296 26.0555 6.21711 25.9151 6.07668C25.7747 5.93626 25.6958 5.7458 25.6958 5.5472V1.9248C25.6958 1.7262 25.7747 1.53574 25.9151 1.39531C26.0555 1.25489 26.246 1.17599 26.4446 1.17599H37.235C37.4336 1.17599 37.6241 1.25489 37.7645 1.39531C37.905 1.53574 37.9838 1.7262 37.9838 1.9248V5.5472ZM26.1355 5.576C26.1912 5.78528 26.4046 5.94368 26.6315 5.94368C30.0862 5.944 33.5445 5.97152 36.9989 5.9376C37.1288 5.93632 37.2229 5.92118 37.2811 5.89216C37.5752 5.74624 37.5675 5.4 37.5675 5.12512C37.5675 4.09408 37.568 3.06304 37.5688 2.032C37.5688 1.95104 37.5221 1.87968 37.5003 1.82496C37.4233 1.62933 37.2717 1.53141 37.0456 1.5312C33.7018 1.52821 30.3579 1.52714 27.0139 1.528C26.708 1.528 26.5184 1.54037 26.4452 1.56512C26.2236 1.64 26.1127 1.82762 26.1124 2.128C26.1118 3.17952 26.1256 4.23392 26.1096 5.28512C26.1076 5.40672 26.1163 5.50368 26.1355 5.576Z" fill="white"/>
<path d="M26.5004 5.54369C26.4115 5.46593 26.4316 5.40225 26.4316 5.29345C26.4316 4.21164 26.4316 3.12364 26.4316 2.02945C26.4316 2.02399 26.4327 2.01866 26.4346 2.01377C26.4366 2.00887 26.4395 2.00452 26.4432 2.00097L26.6198 1.82689C26.627 1.8199 26.637 1.816 26.6476 1.81601H37.0346C37.0454 1.81602 37.0557 1.82016 37.063 1.82753L37.2368 2.00417C37.2438 2.01135 37.2477 2.02122 37.2477 2.03169V5.42369C37.2477 5.44486 37.2407 5.46534 37.2278 5.48193C37.1206 5.61889 37.0467 5.65601 36.863 5.65601C33.4794 5.65601 30.0956 5.65601 26.7116 5.65601C26.6505 5.65601 26.5436 5.58145 26.5004 5.54369Z" fill="white"/>
<path d="M38.1436 2.83231C38.1436 2.67423 38.1557 2.50783 38.3708 2.55551C38.4237 2.56746 38.4689 2.59413 38.5064 2.63551L38.7618 2.91839C38.7966 2.95658 38.814 3.00063 38.814 3.05055L38.8136 4.45408C38.8136 4.46419 38.8099 4.47417 38.8031 4.48224C38.6896 4.61173 38.5747 4.73994 38.4584 4.86688C38.4177 4.91125 38.3501 4.92661 38.2556 4.91296C38.24 4.91076 38.2251 4.90496 38.2122 4.89601C38.1992 4.88707 38.1885 4.87523 38.181 4.86144C38.1531 4.81088 38.1392 4.75306 38.1394 4.688C38.1422 4.06933 38.1436 3.45077 38.1436 2.83231Z" fill="white"/>
</g>
<defs>
<clipPath id="clip0_428_396">
<rect width="9" height="7" fill="white" transform="translate(14)"/>
</clipPath>
</defs>
</svg>
