<svg width="3881" height="1339" viewBox="0 0 3881 1339" fill="none" xmlns="http://www.w3.org/2000/svg">
<path fill-rule="evenodd" clip-rule="evenodd" d="M9 17L9 25L7 25L7 17L9 17Z" fill="#D61E2B"/>
<path fill-rule="evenodd" clip-rule="evenodd" d="M9 37L9 45L7 45L7 37L9 37Z" fill="#D61E2B"/>
<path fill-rule="evenodd" clip-rule="evenodd" d="M8 33C9.10457 33 10 32.1046 10 31C10 29.8954 9.10457 29 8 29C6.89543 29 6 29.8954 6 31C6 32.1046 6.89543 33 8 33ZM8 35C10.2091 35 12 33.2091 12 31C12 28.7909 10.2091 27 8 27C5.79086 27 4 28.7909 4 31C4 33.2091 5.79086 35 8 35Z" fill="#D61E2B"/>
<path fill-rule="evenodd" clip-rule="evenodd" d="M21 42C19.8954 42 19 41.1046 19 40V33.5H21L21 40H29.5V42H21ZM49 33.5H47V40H38.5V42H47C48.1046 42 49 41.1046 49 40V33.5ZM38.5 20V22H47V28.5H49V22C49 20.8954 48.1046 20 47 20H38.5ZM19 28.5H21V22L29.5 22V20H21C19.8954 20 19 20.8954 19 22V28.5Z" fill="#D61E2B"/>
<path fill-rule="evenodd" clip-rule="evenodd" d="M54 12H4C2.89543 12 2 12.8954 2 14V48C2 49.1046 2.89543 50 4 50H54C55.1046 50 56 49.1046 56 48V14C56 12.8954 55.1046 12 54 12ZM4 10C1.79086 10 0 11.7909 0 14V48C0 50.2091 1.79086 52 4 52H54C56.2091 52 58 50.2091 58 48V14C58 11.7909 56.2091 10 54 10H4Z" fill="#D61E2B"/>
<path fill-rule="evenodd" clip-rule="evenodd" d="M51 17H17L17 44H51V17ZM17 15C15.8954 15 15 15.8954 15 17V44C15 45.1046 15.8954 46 17 46H51C52.1046 46 53 45.1046 53 44V17C53 15.8954 52.1046 15 51 15H17Z" fill="#D61E2B"/>
<path fill-rule="evenodd" clip-rule="evenodd" d="M14.8 0H47.4142L47.7071 0.292893C49.4887 2.0745 49.6178 4.92067 48.0048 6.85626L47.4683 7.5H14.7639L9.52989 4.883C8.3813 4.3087 8.43841 2.65065 9.62379 2.15674L14.8 0ZM14 2.5V4.88197L11.4015 3.58271L14 2.5ZM16 5.5H42V2H16V5.5ZM44 2V5.5H46.5295C47.3351 4.46467 47.3292 3.02486 46.5489 2H44Z" fill="#D61E2B"/>
<path d="M3441.82 1335H3449.28V1333.98H3443.01V1323.8H3441.82V1335ZM3454.43 1335.08C3456.9 1335.08 3458.7 1333.29 3458.7 1330.79C3458.7 1328.3 3456.9 1326.52 3454.43 1326.52C3451.97 1326.52 3450.14 1328.3 3450.14 1330.79C3450.14 1333.29 3451.97 1335.08 3454.43 1335.08ZM3454.43 1334.07C3452.64 1334.07 3451.3 1332.76 3451.3 1330.79C3451.3 1328.82 3452.64 1327.51 3454.43 1327.51C3456.22 1327.51 3457.55 1328.82 3457.55 1330.79C3457.55 1332.76 3456.22 1334.07 3454.43 1334.07ZM3462.22 1328.23V1326.58H3461.14V1335H3462.27V1330.71C3462.27 1328.73 3463.34 1327.61 3465.1 1327.61C3465.18 1327.61 3465.28 1327.62 3465.38 1327.62V1326.52C3463.82 1326.52 3462.75 1327.11 3462.22 1328.23ZM3474.81 1330.79C3474.81 1328.26 3473.1 1326.52 3470.73 1326.52C3468.36 1326.52 3466.62 1328.3 3466.62 1330.79C3466.62 1333.29 3468.41 1335.08 3471.03 1335.08C3472.36 1335.08 3473.53 1334.6 3474.28 1333.7L3473.64 1332.97C3473 1333.7 3472.09 1334.07 3471.07 1334.07C3469.23 1334.07 3467.88 1332.9 3467.75 1331.14H3474.79C3474.79 1331.02 3474.81 1330.89 3474.81 1330.79ZM3470.73 1327.5C3472.38 1327.5 3473.58 1328.65 3473.72 1330.3H3467.75C3467.9 1328.65 3469.1 1327.5 3470.73 1327.5ZM3487.73 1326.52C3486.21 1326.52 3485.01 1327.21 3484.4 1328.3C3483.89 1327.11 3482.8 1326.52 3481.41 1326.52C3480 1326.52 3478.92 1327.11 3478.32 1328.12V1326.58H3477.24V1335H3478.37V1330.58C3478.37 1328.66 3479.48 1327.54 3481.19 1327.54C3482.72 1327.54 3483.62 1328.46 3483.62 1330.23V1335H3484.76V1330.58C3484.76 1328.66 3485.84 1327.54 3487.57 1327.54C3489.09 1327.54 3489.99 1328.46 3489.99 1330.23V1335H3491.12V1330.12C3491.12 1327.7 3489.78 1326.52 3487.73 1326.52ZM3499.19 1324.74C3499.67 1324.74 3500.02 1324.38 3500.02 1323.91C3500.02 1323.48 3499.66 1323.13 3499.19 1323.13C3498.73 1323.13 3498.36 1323.5 3498.36 1323.93C3498.36 1324.38 3498.73 1324.74 3499.19 1324.74ZM3498.62 1335H3499.75V1326.58H3498.62V1335ZM3507.36 1326.52C3505.97 1326.52 3504.8 1327.13 3504.11 1328.25V1326.58H3503.02V1338.1H3504.16V1333.42C3504.86 1334.5 3506.02 1335.08 3507.36 1335.08C3509.76 1335.08 3511.55 1333.35 3511.55 1330.79C3511.55 1328.25 3509.76 1326.52 3507.36 1326.52ZM3507.28 1334.07C3505.49 1334.07 3504.14 1332.76 3504.14 1330.79C3504.14 1328.84 3505.49 1327.51 3507.28 1327.51C3509.06 1327.51 3510.42 1328.84 3510.42 1330.79C3510.42 1332.76 3509.06 1334.07 3507.28 1334.07ZM3516.24 1335.08C3518.43 1335.08 3519.71 1334.14 3519.71 1332.68C3519.71 1329.45 3514.25 1331.16 3514.25 1328.89C3514.25 1328.09 3514.92 1327.5 3516.44 1327.5C3517.31 1327.5 3518.19 1327.7 3518.92 1328.22L3519.42 1327.3C3518.72 1326.82 3517.53 1326.52 3516.44 1326.52C3514.3 1326.52 3513.12 1327.54 3513.12 1328.92C3513.12 1332.25 3518.57 1330.52 3518.57 1332.71C3518.57 1333.54 3517.92 1334.09 3516.32 1334.09C3515.13 1334.09 3514 1333.67 3513.32 1333.14L3512.81 1334.04C3513.5 1334.63 3514.84 1335.08 3516.24 1335.08ZM3528.37 1326.58V1331C3528.37 1332.92 3527.26 1334.06 3525.5 1334.06C3523.9 1334.06 3522.98 1333.14 3522.98 1331.35V1326.58H3521.84V1331.46C3521.84 1333.88 3523.25 1335.08 3525.39 1335.08C3526.74 1335.08 3527.82 1334.49 3528.42 1333.46V1335H3529.5V1326.58H3528.37ZM3543.29 1326.52C3541.77 1326.52 3540.57 1327.21 3539.97 1328.3C3539.45 1327.11 3538.37 1326.52 3536.97 1326.52C3535.57 1326.52 3534.48 1327.11 3533.89 1328.12V1326.58H3532.8V1335H3533.93V1330.58C3533.93 1328.66 3535.04 1327.54 3536.75 1327.54C3538.29 1327.54 3539.18 1328.46 3539.18 1330.23V1335H3540.32V1330.58C3540.32 1328.66 3541.41 1327.54 3543.13 1327.54C3544.65 1327.54 3545.55 1328.46 3545.55 1330.23V1335H3546.69V1330.12C3546.69 1327.7 3545.34 1326.52 3543.29 1326.52ZM3560.72 1323.13V1328.18C3560.02 1327.1 3558.87 1326.52 3557.52 1326.52C3555.12 1326.52 3553.33 1328.25 3553.33 1330.79C3553.33 1333.34 3555.12 1335.08 3557.52 1335.08C3558.91 1335.08 3560.08 1334.47 3560.77 1333.34V1335H3561.86V1323.13H3560.72ZM3557.62 1334.07C3555.83 1334.07 3554.48 1332.76 3554.48 1330.79C3554.48 1328.82 3555.83 1327.51 3557.62 1327.51C3559.39 1327.51 3560.74 1328.82 3560.74 1330.79C3560.74 1332.76 3559.39 1334.07 3557.62 1334.07ZM3568.57 1335.08C3571.04 1335.08 3572.85 1333.29 3572.85 1330.79C3572.85 1328.3 3571.04 1326.52 3568.57 1326.52C3566.11 1326.52 3564.29 1328.3 3564.29 1330.79C3564.29 1333.29 3566.11 1335.08 3568.57 1335.08ZM3568.57 1334.07C3566.78 1334.07 3565.44 1332.76 3565.44 1330.79C3565.44 1328.82 3566.78 1327.51 3568.57 1327.51C3570.37 1327.51 3571.69 1328.82 3571.69 1330.79C3571.69 1332.76 3570.37 1334.07 3568.57 1334.07ZM3575.28 1335H3576.41V1323.13H3575.28V1335ZM3583.13 1335.08C3585.59 1335.08 3587.4 1333.29 3587.4 1330.79C3587.4 1328.3 3585.59 1326.52 3583.13 1326.52C3580.66 1326.52 3578.84 1328.3 3578.84 1330.79C3578.84 1333.29 3580.66 1335.08 3583.13 1335.08ZM3583.13 1334.07C3581.33 1334.07 3579.99 1332.76 3579.99 1330.79C3579.99 1328.82 3581.33 1327.51 3583.13 1327.51C3584.92 1327.51 3586.25 1328.82 3586.25 1330.79C3586.25 1332.76 3584.92 1334.07 3583.13 1334.07ZM3590.92 1328.23V1326.58H3589.83V1335H3590.97V1330.71C3590.97 1328.73 3592.04 1327.61 3593.8 1327.61C3593.88 1327.61 3593.97 1327.62 3594.07 1327.62V1326.52C3592.52 1326.52 3591.45 1327.11 3590.92 1328.23ZM3602.92 1335.08C3605.11 1335.08 3606.39 1334.14 3606.39 1332.68C3606.39 1329.45 3600.93 1331.16 3600.93 1328.89C3600.93 1328.09 3601.61 1327.5 3603.13 1327.5C3603.99 1327.5 3604.87 1327.7 3605.61 1328.22L3606.1 1327.3C3605.4 1326.82 3604.21 1326.52 3603.13 1326.52C3600.98 1326.52 3599.8 1327.54 3599.8 1328.92C3599.8 1332.25 3605.25 1330.52 3605.25 1332.71C3605.25 1333.54 3604.6 1334.09 3603 1334.09C3601.81 1334.09 3600.68 1333.67 3600.01 1333.14L3599.49 1334.04C3600.18 1334.63 3601.53 1335.08 3602.92 1335.08ZM3609.18 1324.74C3609.66 1324.74 3610.01 1324.38 3610.01 1323.91C3610.01 1323.48 3609.64 1323.13 3609.18 1323.13C3608.71 1323.13 3608.35 1323.5 3608.35 1323.93C3608.35 1324.38 3608.71 1324.74 3609.18 1324.74ZM3608.6 1335H3609.74V1326.58H3608.6V1335ZM3617.04 1333.67C3616.72 1333.96 3616.26 1334.1 3615.8 1334.1C3614.85 1334.1 3614.34 1333.56 3614.34 1332.57V1327.54H3616.9V1326.58H3614.34V1324.74H3613.2V1326.58H3611.7V1327.54H3613.2V1332.63C3613.2 1334.18 3614.08 1335.08 3615.67 1335.08C3616.32 1335.08 3617 1334.89 3617.44 1334.49L3617.04 1333.67ZM3626.87 1326.52C3625.54 1326.52 3624.29 1326.94 3623.44 1327.66L3623.96 1328.5C3624.64 1327.9 3625.67 1327.51 3626.76 1327.51C3628.32 1327.51 3629.14 1328.3 3629.14 1329.74V1330.25H3626.47C3624.05 1330.25 3623.22 1331.34 3623.22 1332.63C3623.22 1334.09 3624.39 1335.08 3626.29 1335.08C3627.68 1335.08 3628.68 1334.55 3629.19 1333.69V1335H3630.28V1329.78C3630.28 1327.61 3629.04 1326.52 3626.87 1326.52ZM3626.47 1334.18C3625.12 1334.18 3624.34 1333.58 3624.34 1332.6C3624.34 1331.74 3624.87 1331.1 3626.5 1331.1H3629.14V1332.47C3628.69 1333.58 3627.75 1334.18 3626.47 1334.18ZM3643.97 1326.52C3642.45 1326.52 3641.25 1327.21 3640.64 1328.3C3640.13 1327.11 3639.04 1326.52 3637.65 1326.52C3636.24 1326.52 3635.15 1327.11 3634.56 1328.12V1326.58H3633.47V1335H3634.61V1330.58C3634.61 1328.66 3635.71 1327.54 3637.42 1327.54C3638.96 1327.54 3639.86 1328.46 3639.86 1330.23V1335H3640.99V1330.58C3640.99 1328.66 3642.08 1327.54 3643.81 1327.54C3645.33 1327.54 3646.22 1328.46 3646.22 1330.23V1335H3647.36V1330.12C3647.36 1327.7 3646.02 1326.52 3643.97 1326.52ZM3657.93 1330.79C3657.93 1328.26 3656.22 1326.52 3653.85 1326.52C3651.48 1326.52 3649.74 1328.3 3649.74 1330.79C3649.74 1333.29 3651.53 1335.08 3654.15 1335.08C3655.48 1335.08 3656.65 1334.6 3657.4 1333.7L3656.76 1332.97C3656.12 1333.7 3655.21 1334.07 3654.18 1334.07C3652.34 1334.07 3651 1332.9 3650.87 1331.14H3657.91C3657.91 1331.02 3657.93 1330.89 3657.93 1330.79ZM3653.85 1327.5C3655.5 1327.5 3656.7 1328.65 3656.84 1330.3H3650.87C3651.02 1328.65 3652.22 1327.5 3653.85 1327.5ZM3664.38 1333.67C3664.06 1333.96 3663.6 1334.1 3663.14 1334.1C3662.19 1334.1 3661.68 1333.56 3661.68 1332.57V1327.54H3664.24V1326.58H3661.68V1324.74H3660.54V1326.58H3659.04V1327.54H3660.54V1332.63C3660.54 1334.18 3661.42 1335.08 3663.01 1335.08C3663.66 1335.08 3664.34 1334.89 3664.78 1334.49L3664.38 1333.67ZM3667.25 1333.34C3666.77 1333.34 3666.4 1333.7 3666.4 1334.2C3666.4 1334.62 3666.64 1334.92 3666.98 1335.02L3666.43 1337.34H3667.2L3667.87 1335.13C3668.03 1334.68 3668.1 1334.47 3668.1 1334.2C3668.1 1333.72 3667.75 1333.34 3667.25 1333.34ZM3678.41 1335.08C3679.84 1335.08 3681.04 1334.5 3681.71 1333.42L3680.86 1332.84C3680.28 1333.69 3679.39 1334.07 3678.41 1334.07C3676.57 1334.07 3675.23 1332.78 3675.23 1330.79C3675.23 1328.82 3676.57 1327.51 3678.41 1327.51C3679.39 1327.51 3680.28 1327.91 3680.86 1328.76L3681.71 1328.18C3681.04 1327.08 3679.84 1326.52 3678.41 1326.52C3675.9 1326.52 3674.08 1328.28 3674.08 1330.79C3674.08 1333.3 3675.9 1335.08 3678.41 1335.08ZM3687.35 1335.08C3689.81 1335.08 3691.62 1333.29 3691.62 1330.79C3691.62 1328.3 3689.81 1326.52 3687.35 1326.52C3684.89 1326.52 3683.06 1328.3 3683.06 1330.79C3683.06 1333.29 3684.89 1335.08 3687.35 1335.08ZM3687.35 1334.07C3685.56 1334.07 3684.21 1332.76 3684.21 1330.79C3684.21 1328.82 3685.56 1327.51 3687.35 1327.51C3689.14 1327.51 3690.47 1328.82 3690.47 1330.79C3690.47 1332.76 3689.14 1334.07 3687.35 1334.07ZM3698.34 1326.52C3696.89 1326.52 3695.75 1327.11 3695.14 1328.14V1326.58H3694.05V1335H3695.19V1330.58C3695.19 1328.66 3696.33 1327.54 3698.13 1327.54C3699.73 1327.54 3700.66 1328.46 3700.66 1330.23V1335H3701.8V1330.12C3701.8 1327.7 3700.39 1326.52 3698.34 1326.52ZM3707.25 1335.08C3709.44 1335.08 3710.72 1334.14 3710.72 1332.68C3710.72 1329.45 3705.27 1331.16 3705.27 1328.89C3705.27 1328.09 3705.94 1327.5 3707.46 1327.5C3708.32 1327.5 3709.2 1327.7 3709.94 1328.22L3710.43 1327.3C3709.73 1326.82 3708.55 1326.52 3707.46 1326.52C3705.31 1326.52 3704.13 1327.54 3704.13 1328.92C3704.13 1332.25 3709.59 1330.52 3709.59 1332.71C3709.59 1333.54 3708.93 1334.09 3707.33 1334.09C3706.15 1334.09 3705.01 1333.67 3704.34 1333.14L3703.83 1334.04C3704.51 1334.63 3705.86 1335.08 3707.25 1335.08ZM3720.28 1330.79C3720.28 1328.26 3718.57 1326.52 3716.2 1326.52C3713.83 1326.52 3712.09 1328.3 3712.09 1330.79C3712.09 1333.29 3713.88 1335.08 3716.5 1335.08C3717.83 1335.08 3719 1334.6 3719.75 1333.7L3719.11 1332.97C3718.47 1333.7 3717.56 1334.07 3716.53 1334.07C3714.69 1334.07 3713.35 1332.9 3713.22 1331.14H3720.26C3720.26 1331.02 3720.28 1330.89 3720.28 1330.79ZM3716.2 1327.5C3717.85 1327.5 3719.05 1328.65 3719.19 1330.3H3713.22C3713.37 1328.65 3714.57 1327.5 3716.2 1327.5ZM3726.19 1335.08C3727.61 1335.08 3728.81 1334.5 3729.49 1333.42L3728.64 1332.84C3728.06 1333.69 3727.17 1334.07 3726.19 1334.07C3724.35 1334.07 3723.01 1332.78 3723.01 1330.79C3723.01 1328.82 3724.35 1327.51 3726.19 1327.51C3727.17 1327.51 3728.06 1327.91 3728.64 1328.76L3729.49 1328.18C3728.81 1327.08 3727.61 1326.52 3726.19 1326.52C3723.68 1326.52 3721.85 1328.28 3721.85 1330.79C3721.85 1333.3 3723.68 1335.08 3726.19 1335.08ZM3735.96 1333.67C3735.64 1333.96 3735.17 1334.1 3734.71 1334.1C3733.76 1334.1 3733.25 1333.56 3733.25 1332.57V1327.54H3735.81V1326.58H3733.25V1324.74H3732.12V1326.58H3730.61V1327.54H3732.12V1332.63C3732.12 1334.18 3733 1335.08 3734.58 1335.08C3735.24 1335.08 3735.91 1334.89 3736.36 1334.49L3735.96 1333.67ZM3745.58 1330.79C3745.58 1328.26 3743.87 1326.52 3741.5 1326.52C3739.13 1326.52 3737.39 1328.3 3737.39 1330.79C3737.39 1333.29 3739.18 1335.08 3741.81 1335.08C3743.13 1335.08 3744.3 1334.6 3745.05 1333.7L3744.41 1332.97C3743.77 1333.7 3742.86 1334.07 3741.84 1334.07C3740 1334.07 3738.65 1332.9 3738.53 1331.14H3745.57C3745.57 1331.02 3745.58 1330.89 3745.58 1330.79ZM3741.5 1327.5C3743.15 1327.5 3744.35 1328.65 3744.49 1330.3H3738.53C3738.67 1328.65 3739.87 1327.5 3741.5 1327.5ZM3752.04 1333.67C3751.72 1333.96 3751.25 1334.1 3750.79 1334.1C3749.85 1334.1 3749.33 1333.56 3749.33 1332.57V1327.54H3751.89V1326.58H3749.33V1324.74H3748.2V1326.58H3746.69V1327.54H3748.2V1332.63C3748.2 1334.18 3749.08 1335.08 3750.66 1335.08C3751.32 1335.08 3751.99 1334.89 3752.44 1334.49L3752.04 1333.67ZM3761.07 1326.58V1331C3761.07 1332.92 3759.96 1334.06 3758.2 1334.06C3756.6 1334.06 3755.67 1333.14 3755.67 1331.35V1326.58H3754.54V1331.46C3754.54 1333.88 3755.95 1335.08 3758.09 1335.08C3759.43 1335.08 3760.52 1334.49 3761.11 1333.46V1335H3762.2V1326.58H3761.07ZM3766.58 1328.23V1326.58H3765.5V1335H3766.63V1330.71C3766.63 1328.73 3767.7 1327.61 3769.46 1327.61C3769.54 1327.61 3769.64 1327.62 3769.74 1327.62V1326.52C3768.18 1326.52 3767.11 1327.11 3766.58 1328.23ZM3779.27 1326.52C3777.95 1326.52 3776.7 1326.94 3775.85 1327.66L3776.36 1328.5C3777.05 1327.9 3778.07 1327.51 3779.16 1327.51C3780.73 1327.51 3781.55 1328.3 3781.55 1329.74V1330.25H3778.87C3776.46 1330.25 3775.63 1331.34 3775.63 1332.63C3775.63 1334.09 3776.79 1335.08 3778.7 1335.08C3780.09 1335.08 3781.08 1334.55 3781.59 1333.69V1335H3782.68V1329.78C3782.68 1327.61 3781.45 1326.52 3779.27 1326.52ZM3778.87 1334.18C3777.53 1334.18 3776.75 1333.58 3776.75 1332.6C3776.75 1331.74 3777.27 1331.1 3778.91 1331.1H3781.55V1332.47C3781.1 1333.58 3780.15 1334.18 3778.87 1334.18ZM3792.45 1323.13V1328.18C3791.75 1327.1 3790.6 1326.52 3789.25 1326.52C3786.85 1326.52 3785.06 1328.25 3785.06 1330.79C3785.06 1333.34 3786.85 1335.08 3789.25 1335.08C3790.65 1335.08 3791.81 1334.47 3792.5 1333.34V1335H3793.59V1323.13H3792.45ZM3789.35 1334.07C3787.56 1334.07 3786.21 1332.76 3786.21 1330.79C3786.21 1328.82 3787.56 1327.51 3789.35 1327.51C3791.13 1327.51 3792.47 1328.82 3792.47 1330.79C3792.47 1332.76 3791.13 1334.07 3789.35 1334.07ZM3797.44 1324.74C3797.92 1324.74 3798.27 1324.38 3798.27 1323.91C3798.27 1323.48 3797.91 1323.13 3797.44 1323.13C3796.98 1323.13 3796.61 1323.5 3796.61 1323.93C3796.61 1324.38 3796.98 1324.74 3797.44 1324.74ZM3796.87 1335H3798V1326.58H3796.87V1335ZM3805.61 1326.52C3804.22 1326.52 3803.05 1327.13 3802.36 1328.25V1326.58H3801.28V1338.1H3802.41V1333.42C3803.12 1334.5 3804.27 1335.08 3805.61 1335.08C3808.01 1335.08 3809.8 1333.35 3809.8 1330.79C3809.8 1328.25 3808.01 1326.52 3805.61 1326.52ZM3805.53 1334.07C3803.74 1334.07 3802.4 1332.76 3802.4 1330.79C3802.4 1328.84 3803.74 1327.51 3805.53 1327.51C3807.31 1327.51 3808.67 1328.84 3808.67 1330.79C3808.67 1332.76 3807.31 1334.07 3805.53 1334.07ZM3812.81 1324.74C3813.29 1324.74 3813.64 1324.38 3813.64 1323.91C3813.64 1323.48 3813.27 1323.13 3812.81 1323.13C3812.34 1323.13 3811.97 1323.5 3811.97 1323.93C3811.97 1324.38 3812.34 1324.74 3812.81 1324.74ZM3812.23 1335H3813.37V1326.58H3812.23V1335ZM3818.9 1335.08C3821.09 1335.08 3822.37 1334.14 3822.37 1332.68C3822.37 1329.45 3816.91 1331.16 3816.91 1328.89C3816.91 1328.09 3817.58 1327.5 3819.1 1327.5C3819.97 1327.5 3820.85 1327.7 3821.58 1328.22L3822.08 1327.3C3821.38 1326.82 3820.19 1326.52 3819.1 1326.52C3816.96 1326.52 3815.78 1327.54 3815.78 1328.92C3815.78 1332.25 3821.23 1330.52 3821.23 1332.71C3821.23 1333.54 3820.58 1334.09 3818.98 1334.09C3817.79 1334.09 3816.66 1333.67 3815.98 1333.14L3815.47 1334.04C3816.16 1334.63 3817.5 1335.08 3818.9 1335.08ZM3828.07 1335.08C3829.49 1335.08 3830.69 1334.5 3831.36 1333.42L3830.52 1332.84C3829.94 1333.69 3829.04 1334.07 3828.07 1334.07C3826.23 1334.07 3824.88 1332.78 3824.88 1330.79C3824.88 1328.82 3826.23 1327.51 3828.07 1327.51C3829.04 1327.51 3829.94 1327.91 3830.52 1328.76L3831.36 1328.18C3830.69 1327.08 3829.49 1326.52 3828.07 1326.52C3825.56 1326.52 3823.73 1328.28 3823.73 1330.79C3823.73 1333.3 3825.56 1335.08 3828.07 1335.08ZM3834.28 1324.74C3834.76 1324.74 3835.12 1324.38 3835.12 1323.91C3835.12 1323.48 3834.75 1323.13 3834.28 1323.13C3833.82 1323.13 3833.45 1323.5 3833.45 1323.93C3833.45 1324.38 3833.82 1324.74 3834.28 1324.74ZM3833.71 1335H3834.84V1326.58H3833.71V1335ZM3842.4 1326.52C3840.95 1326.52 3839.81 1327.11 3839.2 1328.14V1326.58H3838.12V1335H3839.25V1330.58C3839.25 1328.66 3840.39 1327.54 3842.2 1327.54C3843.8 1327.54 3844.72 1328.46 3844.72 1330.23V1335H3845.86V1330.12C3845.86 1327.7 3844.45 1326.52 3842.4 1326.52ZM3855.79 1326.58V1328.2C3855.09 1327.1 3853.87 1326.52 3852.46 1326.52C3850.06 1326.52 3848.24 1328.17 3848.24 1330.58C3848.24 1333 3850.06 1334.68 3852.46 1334.68C3853.84 1334.68 3855.04 1334.12 3855.74 1333.05V1334.12C3855.74 1336.2 3854.77 1337.18 3852.64 1337.18C3851.34 1337.18 3850.13 1336.74 3849.33 1336.02L3848.75 1336.89C3849.63 1337.72 3851.14 1338.18 3852.67 1338.18C3855.46 1338.18 3856.88 1336.87 3856.88 1333.98V1326.58H3855.79ZM3852.58 1333.67C3850.72 1333.67 3849.39 1332.41 3849.39 1330.58C3849.39 1328.76 3850.72 1327.51 3852.58 1327.51C3854.43 1327.51 3855.78 1328.76 3855.78 1330.58C3855.78 1332.41 3854.43 1333.67 3852.58 1333.67ZM3871.81 1330.79C3871.81 1328.26 3870.1 1326.52 3867.73 1326.52C3865.36 1326.52 3863.62 1328.3 3863.62 1330.79C3863.62 1333.29 3865.41 1335.08 3868.04 1335.08C3869.36 1335.08 3870.53 1334.6 3871.28 1333.7L3870.64 1332.97C3870 1333.7 3869.09 1334.07 3868.07 1334.07C3866.23 1334.07 3864.88 1332.9 3864.76 1331.14H3871.8C3871.8 1331.02 3871.81 1330.89 3871.81 1330.79ZM3867.73 1327.5C3869.38 1327.5 3870.58 1328.65 3870.72 1330.3H3864.76C3864.9 1328.65 3866.1 1327.5 3867.73 1327.5ZM3874.24 1335H3875.37V1323.13H3874.24V1335ZM3879.22 1324.74C3879.7 1324.74 3880.05 1324.38 3880.05 1323.91C3880.05 1323.48 3879.69 1323.13 3879.22 1323.13C3878.76 1323.13 3878.39 1323.5 3878.39 1323.93C3878.39 1324.38 3878.76 1324.74 3879.22 1324.74ZM3878.65 1335H3879.78V1326.58H3878.65V1335Z" fill="#C0C0BD"/>
</svg>
