<svg width="171" height="342" viewBox="0 0 171 342" fill="none" xmlns="http://www.w3.org/2000/svg">
<path fill-rule="evenodd" clip-rule="evenodd" d="M10 0C4.47715 0 0 4.47716 0 10V332C0 337.523 4.47716 342 10 342H161C166.523 342 171 337.523 171 332V10C171 4.47715 166.523 0 161 0H10ZM66 9C62.6863 9 60 11.6863 60 15C60 18.3137 62.6863 21 66 21H105C108.314 21 111 18.3137 111 15C111 11.6863 108.314 9 105 9H66ZM18.65 10.752C19.03 10.752 19.35 10.834 19.61 10.998C19.874 11.162 20.074 11.4 20.21 11.712C20.346 12.02 20.414 12.398 20.414 12.846C20.414 13.322 20.33 13.724 20.162 14.052C19.994 14.38 19.762 14.628 19.466 14.796C19.17 14.964 18.824 15.048 18.428 15.048C18.232 15.048 18.042 15.028 17.858 14.988C17.678 14.948 17.52 14.886 17.384 14.802L17.612 14.334C17.724 14.406 17.848 14.458 17.984 14.49C18.124 14.518 18.27 14.532 18.422 14.532C18.846 14.532 19.184 14.4 19.436 14.136C19.688 13.868 19.814 13.472 19.814 12.948C19.814 12.9036 19.8128 12.8547 19.8106 12.8013C19.7685 12.8652 19.7196 12.9241 19.664 12.978C19.536 13.102 19.38 13.196 19.196 13.26C19.016 13.32 18.818 13.35 18.602 13.35C18.326 13.35 18.08 13.298 17.864 13.194C17.648 13.09 17.478 12.944 17.354 12.756C17.23 12.564 17.168 12.338 17.168 12.078C17.168 11.806 17.232 11.572 17.36 11.376C17.492 11.176 17.67 11.022 17.894 10.914C18.122 10.806 18.374 10.752 18.65 10.752ZM18.674 11.238C18.494 11.238 18.334 11.272 18.194 11.34C18.054 11.408 17.944 11.502 17.864 11.622C17.788 11.742 17.75 11.886 17.75 12.054C17.75 12.302 17.836 12.5 18.008 12.648C18.18 12.792 18.412 12.864 18.704 12.864C18.896 12.864 19.064 12.828 19.208 12.756C19.356 12.684 19.47 12.586 19.55 12.462C19.634 12.338 19.676 12.2 19.676 12.048C19.676 11.9 19.638 11.766 19.562 11.646C19.486 11.526 19.374 11.428 19.226 11.352C19.078 11.276 18.894 11.238 18.674 11.238ZM21.4291 12.612C21.3171 12.612 21.2211 12.574 21.1411 12.498C21.0611 12.418 21.0211 12.318 21.0211 12.198C21.0211 12.078 21.0611 11.98 21.1411 11.904C21.2211 11.828 21.3171 11.79 21.4291 11.79C21.5371 11.79 21.6291 11.828 21.7051 11.904C21.7851 11.98 21.8251 12.078 21.8251 12.198C21.8251 12.318 21.7851 12.418 21.7051 12.498C21.6291 12.574 21.5371 12.612 21.4291 12.612ZM21.4291 15.036C21.3171 15.036 21.2211 14.998 21.1411 14.922C21.0611 14.842 21.0211 14.742 21.0211 14.622C21.0211 14.502 21.0611 14.404 21.1411 14.328C21.2211 14.252 21.3171 14.214 21.4291 14.214C21.5371 14.214 21.6291 14.252 21.7051 14.328C21.7851 14.404 21.8251 14.502 21.8251 14.622C21.8251 14.742 21.7851 14.842 21.7051 14.922C21.6291 14.998 21.5371 15.036 21.4291 15.036ZM23.1425 11.322V15H23.7365V10.8H22.1945V11.322H23.1425ZM25.4052 15V11.322H24.4572V10.8H25.9992V15H25.4052ZM124 13C123.448 13 123 13.4477 123 14V15.7273C123 15.8779 123.122 16 123.273 16H124.727C124.878 16 125 15.8779 125 15.7273V14C125 13.4477 124.552 13 124 13ZM126 13C126 12.4477 126.448 12 127 12C127.552 12 128 12.4477 128 13V15.6364C128 15.8372 127.837 16 127.636 16H126.364C126.163 16 126 15.8372 126 15.6364V13ZM130 10C129.448 10 129 10.4477 129 11V15.4545C129 15.7558 129.244 16 129.545 16H130.455C130.756 16 131 15.7558 131 15.4545V11C131 10.4477 130.552 10 130 10ZM132 10C132 9.44771 132.448 9 133 9C133.552 9 134 9.44772 134 10V15.3636C134 15.7151 133.715 16 133.364 16H132.636C132.285 16 132 15.7151 132 15.3636V10ZM141.558 9.00792C141.52 9.01294 141.482 9.01211 141.445 9.00541L141.395 9.01264C139.797 9.04438 138.199 9.7268 137.054 10.9549C136.984 11.0303 136.994 11.1012 137.048 11.1799C137.113 11.2734 137.183 11.3619 137.258 11.4455L137.379 11.581C137.461 11.6672 137.546 11.7504 137.633 11.8307C137.711 11.903 137.779 11.959 137.874 11.8686C138.078 11.674 138.291 11.4927 138.513 11.3246C139.13 10.8585 139.815 10.5176 140.553 10.3781C141.261 10.2442 142.019 10.2539 142.722 10.4416C143.009 10.5139 143.287 10.6166 143.555 10.7496C143.796 10.8649 144.027 10.9998 144.249 11.1542C144.338 11.2139 144.426 11.2768 144.512 11.3429C144.738 11.516 144.942 11.691 145.125 11.8679C145.16 11.902 145.199 11.9185 145.242 11.9175C145.305 11.8932 145.366 11.8343 145.415 11.7861L145.418 11.7832C145.561 11.645 145.697 11.4994 145.827 11.3464C145.867 11.2988 145.913 11.2362 145.965 11.1586C145.99 11.1214 145.999 11.0823 145.994 11.0412C145.986 11.0118 145.975 10.9903 145.963 10.9766C145.657 10.6437 145.322 10.3507 144.958 10.0976L144.914 10.0671C143.909 9.40221 142.774 9.03896 141.601 9.01224L141.558 9.00792ZM144.308 11.9455L144.406 12.0305C144.492 12.1091 144.576 12.1907 144.657 12.2752C144.703 12.3105 144.766 12.3896 144.748 12.4562C144.73 12.5269 144.65 12.622 144.599 12.6829L144.599 12.6831L144.599 12.6833C144.456 12.856 144.304 13.0187 144.143 13.1713C144.105 13.2074 144.035 13.2728 143.984 13.2779C143.943 13.273 143.907 13.257 143.875 13.2297C143.798 13.1647 143.719 13.1015 143.64 13.0402C143.438 12.8811 143.228 12.7377 143.008 12.6101C142.718 12.4344 142.409 12.3185 142.081 12.2625C141.612 12.1824 141.146 12.1987 140.691 12.3322C140.488 12.3913 140.289 12.4613 140.102 12.5558C139.8 12.7087 139.508 12.8925 139.228 13.1071C139.206 13.1239 139.18 13.1451 139.151 13.168C139.108 13.2029 139.059 13.2415 139.016 13.2737C138.979 13.2768 138.916 13.2247 138.888 13.2001C138.731 13.0634 138.529 12.84 138.371 12.6447C138.321 12.5818 138.285 12.5301 138.265 12.4893C138.223 12.4022 138.276 12.3465 138.328 12.2908C138.671 11.9306 139.058 11.6424 139.49 11.4263C140.411 10.9653 141.439 10.815 142.437 11.0411C143.111 11.1941 143.756 11.4936 144.308 11.9455ZM143.261 14.1571C143.33 14.0815 143.394 14.002 143.454 13.9186C143.518 13.8332 143.535 13.7599 143.453 13.6756C143.294 13.5099 143.126 13.3734 142.937 13.2634C142.292 12.8902 141.541 12.7583 140.827 12.9482C140.375 13.0684 139.94 13.2845 139.591 13.6261C139.53 13.6865 139.455 13.7651 139.51 13.8576C139.547 13.9202 139.589 13.9797 139.633 14.0362C139.639 14.0401 139.643 14.0452 139.645 14.0516L139.751 14.1717C139.872 14.3088 139.993 14.4326 140.112 14.5431C140.14 14.5692 140.21 14.6298 140.252 14.6357C140.264 14.6374 140.276 14.6341 140.288 14.6257C140.319 14.6052 140.349 14.5846 140.379 14.5641C140.492 14.4859 140.604 14.4089 140.736 14.3443C140.912 14.2574 141.094 14.1839 141.282 14.1546C141.535 14.1152 141.783 14.1431 142.026 14.2381C142.202 14.3071 142.374 14.3934 142.534 14.5011L142.729 14.6331C142.74 14.6408 142.752 14.641 142.764 14.6336C142.826 14.5962 142.884 14.5517 142.936 14.5003C143.049 14.3906 143.157 14.2762 143.261 14.1571ZM142.193 15.0229L142.214 15.0438C142.294 15.1404 142.245 15.2283 142.186 15.312C142.03 15.5273 141.815 15.7607 141.622 15.9318C141.589 15.9574 141.555 15.9786 141.518 15.9954C141.391 16.0143 141.021 15.5728 140.932 15.4643L140.926 15.4572C140.854 15.3706 140.798 15.3023 140.757 15.216C140.633 14.9581 141.272 14.8095 141.387 14.7923C141.55 14.7681 141.715 14.8056 141.875 14.8594C141.985 14.8962 142.105 14.9392 142.193 15.0229ZM160.765 15.0767C160.905 14.9363 160.984 14.7458 160.984 14.5472V10.9248C160.984 10.7262 160.905 10.5357 160.765 10.3953C160.624 10.2549 160.434 10.176 160.235 10.176H149.445C149.246 10.176 149.056 10.2549 148.915 10.3953C148.775 10.5357 148.696 10.7262 148.696 10.9248V14.5472C148.696 14.7458 148.775 14.9363 148.915 15.0767C149.056 15.2171 149.246 15.296 149.445 15.296H160.235C160.434 15.296 160.624 15.2171 160.765 15.0767ZM149.632 14.9437C149.405 14.9437 149.191 14.7853 149.136 14.576C149.116 14.5037 149.108 14.4067 149.11 14.2851C149.12 13.5766 149.118 12.8667 149.115 12.1571V12.1569V12.1566C149.114 11.8136 149.112 11.4706 149.113 11.128C149.113 10.8276 149.224 10.64 149.445 10.5651C149.519 10.5404 149.708 10.528 150.014 10.528C153.358 10.5271 156.702 10.5282 160.046 10.5312C160.272 10.5314 160.423 10.6293 160.5 10.825C160.506 10.838 160.512 10.8521 160.519 10.867L160.52 10.8684L160.52 10.8689C160.543 10.9159 160.569 10.9712 160.569 11.032C160.568 12.063 160.568 13.0941 160.568 14.1251V14.1456C160.568 14.417 160.568 14.7498 160.281 14.8922C160.223 14.9212 160.129 14.9363 159.999 14.9376C157.604 14.9611 155.208 14.9551 152.812 14.9491H152.812H152.812C151.751 14.9464 150.691 14.9438 149.632 14.9437ZM149.5 14.5437C149.426 14.4788 149.428 14.4236 149.431 14.3439C149.431 14.3281 149.432 14.3114 149.432 14.2934V11.0294C149.432 11.024 149.433 11.0186 149.435 11.0138C149.436 11.0107 149.437 11.0079 149.439 11.0054C149.44 11.0038 149.442 11.0023 149.443 11.001L149.62 10.8269C149.627 10.8199 149.637 10.816 149.648 10.816H160.035C160.045 10.816 160.056 10.8202 160.063 10.8275L160.237 11.0042C160.244 11.0113 160.248 11.0212 160.248 11.0317V14.4237C160.248 14.4448 160.241 14.4653 160.228 14.4819C160.121 14.6189 160.047 14.656 159.863 14.656H149.712C149.65 14.656 149.544 14.5814 149.5 14.5437ZM161.371 11.5555C161.156 11.5078 161.144 11.6742 161.144 11.8323C161.144 12.4508 161.142 13.0693 161.139 13.688C161.139 13.7531 161.153 13.8109 161.181 13.8614C161.189 13.8752 161.199 13.8871 161.212 13.896C161.225 13.905 161.24 13.9108 161.256 13.913C161.35 13.9266 161.418 13.9113 161.459 13.8669C161.575 13.74 161.69 13.6117 161.803 13.4822C161.81 13.4742 161.814 13.4642 161.814 13.4541L161.814 12.0506C161.814 12.0006 161.797 11.9566 161.762 11.9184L161.507 11.6355C161.469 11.5941 161.424 11.5675 161.371 11.5555Z" fill="#1E1E1E"/>
</svg>
