<svg width="60" height="60" viewBox="0 0 60 60" fill="none" xmlns="http://www.w3.org/2000/svg">
<path fill-rule="evenodd" clip-rule="evenodd" d="M48.8421 27.0414L24.8642 49.9304H48.8421V27.0414ZM48.4119 24.6961C49.3452 23.9584 50.7247 24.5487 50.8355 25.7331C50.8425 25.8071 50.8422 25.8979 50.8421 25.9493C50.8421 25.9556 50.8421 25.9613 50.8421 25.9664V51.9304H23.7161C23.7107 51.9304 23.7046 51.9304 23.6979 51.9305C23.6435 51.9306 23.5493 51.9309 23.4737 51.9236C22.2605 51.8078 21.6845 50.3702 22.4821 49.4488C22.5318 49.3914 22.6001 49.3265 22.6395 49.2891C22.6444 49.2844 22.6489 49.2802 22.6528 49.2765L48.2387 24.8524C48.2423 24.849 48.2465 24.845 48.251 24.8406C48.2881 24.805 48.3536 24.7422 48.4119 24.6961Z" fill="#D61E2B"/>
<line x1="41.6843" y1="58.0261" x2="41.6843" y2="57" stroke="#D61E2B" stroke-width="2" stroke-linecap="round"/>
<path d="M45.6843 56L45.6843 58.0174" stroke="#D61E2B" stroke-width="2" stroke-linecap="round"/>
<path fill-rule="evenodd" clip-rule="evenodd" d="M35.0492 0.638759C35.6339 0.0591347 36.5765 0.0591341 37.1612 0.638759L43.8282 7.24776C44.4202 7.83459 44.4202 8.7915 43.8282 9.37833L10.656 42.2621L1.93857 44.1824C0.900412 44.4111 -0.0396184 43.5172 0.136637 42.4689L1.59353 33.8035L35.0492 0.638759ZM36.1052 2.40808L33.0739 5.41305L39.0307 11.318L42.062 8.31304L36.1052 2.40808ZM37.6102 12.7261L35.3421 10.4776L7.78763 37.7925L10.134 39.9634L37.6102 12.7261ZM8.07465 40.7828L3.20559 36.2778L2.23178 42.0699L8.07465 40.7828ZM3.97184 34.2621L6.31822 36.433L33.9216 9.06957L31.6535 6.82112L3.97184 34.2621Z" fill="#D61E2B"/>
<path fill-rule="evenodd" clip-rule="evenodd" d="M57.0398 3.56166C57.9687 2.79977 59.3716 3.38448 59.4845 4.58053C59.4915 4.65519 59.4913 4.74735 59.4911 4.79991L59.4911 4.81741V59.4957H4.34674L4.32902 59.4957C4.2759 59.4958 4.18305 59.4961 4.10815 59.489C2.90669 59.3752 2.32467 57.9613 3.09782 57.0347C3.14603 56.9769 3.21209 56.9118 3.24991 56.8745L3.26256 56.862L56.8669 3.72372L56.8793 3.7114C56.9165 3.67431 56.9818 3.60923 57.0398 3.56166ZM57.4911 5.92112L5.46418 57.4957H17.3157V56.9739C17.3157 56.4216 17.7634 55.9739 18.3157 55.9739C18.868 55.9739 19.3157 56.4216 19.3157 56.9739V57.4957H20.9999V56C20.9999 55.4477 21.4476 55 21.9999 55C22.5522 55 22.9999 55.4477 22.9999 56V57.4957H24.9999V57C24.9999 56.4477 25.4476 56 25.9999 56C26.5522 56 26.9999 56.4477 26.9999 57V57.4957H28.9999V56C28.9999 55.4477 29.4476 55 29.9999 55C30.5522 55 30.9999 55.4477 30.9999 56V57.4957H32.9999V56.9739C32.9999 56.4216 33.4476 55.9739 33.9999 55.9739C34.5522 55.9739 34.9999 56.4216 34.9999 56.9739V57.4957H36.6842V56C36.6842 55.4477 37.1319 55 37.6842 55C38.2365 55 38.6842 55.4477 38.6842 56V57.4957H40.6842V57C40.6842 56.4477 41.1319 56 41.6842 56C42.2365 56 42.6842 56.4477 42.6842 57V57.4957H44.6842V56C44.6842 55.4477 45.1319 55 45.6842 55C46.2365 55 46.6842 55.4477 46.6842 56V57.4957H48.9999V57C48.9999 56.4477 49.4476 56 49.9999 56C50.5522 56 50.9999 56.4477 50.9999 57V57.4957H52.9999V56C52.9999 55.4477 53.4476 55 53.9999 55C54.5522 55 54.9999 55.4477 54.9999 56V57.4957H57.4911V52.6842H56.9739C56.4216 52.6842 55.9739 52.2365 55.9739 51.6842C55.9739 51.1319 56.4216 50.6842 56.9739 50.6842H57.4911V49H56C55.4477 49 55 48.5523 55 48C55 47.4477 55.4477 47 56 47H57.4911V45H57C56.4477 45 56 44.5523 56 44C56 43.4477 56.4477 43 57 43H57.4911V41H56C55.4477 41 55 40.5523 55 40C55 39.4477 55.4477 39 56 39H57.4911V37H56.9739C56.4216 37 55.9739 36.5523 55.9739 36C55.9739 35.4477 56.4216 35 56.9739 35H57.4911V33.3157H56C55.4477 33.3157 55 32.868 55 32.3157C55 31.7634 55.4477 31.3157 56 31.3157H57.4911V29.3157H57C56.4477 29.3157 56 28.868 56 28.3157C56 27.7634 56.4477 27.3157 57 27.3157H57.4911V25.3157H56C55.4477 25.3157 55 24.868 55 24.3157C55 23.7634 55.4477 23.3157 56 23.3157H57.4911V21H57C56.4477 21 56 20.5523 56 20C56 19.4477 56.4477 19 57 19H57.4911V17H56C55.4477 17 55 16.5523 55 16C55 15.4477 55.4477 15 56 15H57.4911V5.92112Z" fill="#D61E2B"/>
</svg>
