<svg width="58" height="52" viewBox="0 0 58 52" fill="none" xmlns="http://www.w3.org/2000/svg">
<path fill-rule="evenodd" clip-rule="evenodd" d="M9 17L9 25L7 25L7 17L9 17Z" fill="#D61E2B"/>
<path fill-rule="evenodd" clip-rule="evenodd" d="M9 37L9 45L7 45L7 37L9 37Z" fill="#D61E2B"/>
<path fill-rule="evenodd" clip-rule="evenodd" d="M8 33C9.10457 33 10 32.1046 10 31C10 29.8954 9.10457 29 8 29C6.89543 29 6 29.8954 6 31C6 32.1046 6.89543 33 8 33ZM8 35C10.2091 35 12 33.2091 12 31C12 28.7909 10.2091 27 8 27C5.79086 27 4 28.7909 4 31C4 33.2091 5.79086 35 8 35Z" fill="#D61E2B"/>
<path fill-rule="evenodd" clip-rule="evenodd" d="M21 42C19.8954 42 19 41.1046 19 40V33.5H21L21 40H29.5V42H21ZM49 33.5H47V40H38.5V42H47C48.1046 42 49 41.1046 49 40V33.5ZM38.5 20V22H47V28.5H49V22C49 20.8954 48.1046 20 47 20H38.5ZM19 28.5H21V22L29.5 22V20H21C19.8954 20 19 20.8954 19 22V28.5Z" fill="#D61E2B"/>
<path fill-rule="evenodd" clip-rule="evenodd" d="M54 12H4C2.89543 12 2 12.8954 2 14V48C2 49.1046 2.89543 50 4 50H54C55.1046 50 56 49.1046 56 48V14C56 12.8954 55.1046 12 54 12ZM4 10C1.79086 10 0 11.7909 0 14V48C0 50.2091 1.79086 52 4 52H54C56.2091 52 58 50.2091 58 48V14C58 11.7909 56.2091 10 54 10H4Z" fill="#D61E2B"/>
<path fill-rule="evenodd" clip-rule="evenodd" d="M51 17H17L17 44H51V17ZM17 15C15.8954 15 15 15.8954 15 17V44C15 45.1046 15.8954 46 17 46H51C52.1046 46 53 45.1046 53 44V17C53 15.8954 52.1046 15 51 15H17Z" fill="#D61E2B"/>
<path fill-rule="evenodd" clip-rule="evenodd" d="M14.8 0H47.4142L47.7071 0.292893C49.4887 2.0745 49.6178 4.92067 48.0048 6.85626L47.4683 7.5H14.7639L9.52989 4.883C8.3813 4.3087 8.43841 2.65065 9.62379 2.15674L14.8 0ZM14 2.5V4.88197L11.4015 3.58271L14 2.5ZM16 5.5H42V2H16V5.5ZM44 2V5.5H46.5295C47.3351 4.46467 47.3292 3.02486 46.5489 2H44Z" fill="#D61E2B"/>
</svg>
