<svg width="65" height="42" viewBox="0 0 65 42" fill="none" xmlns="http://www.w3.org/2000/svg">
<path fill-rule="evenodd" clip-rule="evenodd" d="M4.86771 1.49772C4.24734 1.49772 3.74442 2.00063 3.74442 2.621V35H61.5001V2.621C61.5001 2.00063 60.9972 1.49772 60.3768 1.49772H4.86771ZM2.24671 2.621V35H0.500002C0.22386 35 0 35.2239 0 35.5V38.9375C0 40.6289 1.16739 42 2.60745 42H62.3926C63.8326 42 65 40.6289 65 38.9375V35.5C65 35.2239 64.7761 35 64.5 35H62.9978V2.621C62.9978 1.17346 61.8244 0 60.3768 0H4.86771C3.42017 0 2.24671 1.17346 2.24671 2.621ZM1.48997 36.75V38.9375C1.48997 39.6624 1.99028 40.25 2.60745 40.25H62.3926C63.0097 40.25 63.51 39.6624 63.51 38.9375V36.75H1.48997ZM7.82131 5.38922H57.1787C57.3799 5.38922 57.543 5.54472 57.543 5.73653V31.2635C57.543 31.4553 57.3799 31.6108 57.1787 31.6108H7.82131C7.62013 31.6108 7.45704 31.4553 7.45704 31.2635V5.73653C7.45704 5.54472 7.62013 5.38922 7.82131 5.38922ZM6 5.73653C6 4.77747 6.81543 4 7.82131 4H57.1787C58.1846 4 59 4.77747 59 5.73653V31.2635C59 32.2225 58.1846 33 57.1787 33H7.82131C6.81543 33 6 32.2225 6 31.2635V5.73653Z" fill="#D61E2B"/>
<path fill-rule="evenodd" clip-rule="evenodd" d="M31.9305 8.64762C31.9305 9.1999 31.4828 9.64762 30.9305 9.64762H10C9.44772 9.64762 9 9.1999 9 8.64762V8.59414C9 8.04186 9.44772 7.59414 10 7.59414H30.9305C31.4828 7.59414 31.9305 8.04186 31.9305 8.59414V8.64762Z" fill="#D61E2B"/>
<path fill-rule="evenodd" clip-rule="evenodd" d="M24.9144 11.9506C24.9144 12.5029 24.4667 12.9506 23.9144 12.9506H10C9.44772 12.9506 9 12.5029 9 11.9506V11.8971C9 11.3448 9.44772 10.8971 10 10.8971H23.9144C24.4667 10.8971 24.9144 11.3448 24.9144 11.8971V11.9506Z" fill="#D61E2B"/>
<path fill-rule="evenodd" clip-rule="evenodd" d="M41 15.0471C41 15.5994 40.5523 16.0471 40 16.0471H10C9.44772 16.0471 9 15.5994 9 15.0471V14.9936C9 14.4413 9.44772 13.9936 10 13.9936H40C40.5523 13.9936 41 14.4413 41 14.9936V15.0471Z" fill="#D61E2B"/>
<path fill-rule="evenodd" clip-rule="evenodd" d="M33.4706 18.35C33.4706 18.9023 33.0229 19.35 32.4706 19.35H10C9.44772 19.35 9 18.9023 9 18.35V18.2965C9 17.7443 9.44772 17.2965 10 17.2965H32.4706C33.0229 17.2965 33.4706 17.7443 33.4706 18.2965V18.35Z" fill="#D61E2B"/>
<path fill-rule="evenodd" clip-rule="evenodd" d="M29.7059 21.653C29.7059 22.2053 29.2582 22.653 28.7059 22.653H10C9.44772 22.653 9 22.2053 9 21.653V21.5995C9 21.0472 9.44772 20.5995 10 20.5995H28.7059C29.2582 20.5995 29.7059 21.0472 29.7059 21.5995V21.653Z" fill="#D61E2B"/>
</svg>
